<svg xmlns="http://www.w3.org/2000/svg" viewBox="0 0 40 40">
  <path d="M8 4h24c2.2 0 4 1.8 4 4v5.8a2.2 2.2 0 0 1 0 4.4V32c0 2.2-1.8 4-4 4H8c-2.2 0-4-1.8-4-4v-5.8a2.2 2.2 0 0 1 0-4.4V8c0-2.2 1.8-4 4-4zm0 6v4.2a4 4 0 0 0 0 7.6V30h24v-8.2a4 4 0 0 0 0-7.6V10H8z" fill="#0f172a"/>
  <g fill="#f59e0b">
    <ellipse cx="26" cy="21" rx="3" ry="2.4"/>
    <path d="M26 19v-7l2.5 1.8" stroke="#f59e0b" stroke-width="1.2" fill="none" stroke-linecap="round" stroke-linejoin="round"/>
    <line x1="26" y1="19" x2="26" y2="27" stroke="#f59e0b" stroke-width="1.3" stroke-linecap="round"/>
  </g>
</svg>
